PathFileType	4	(X/Y/Z)	./resultDataOpenSim/trcMotMarkerGrf/sub06/qtm-05-08.trc
DataRate	CameraRate	NumFrames	NumMarkers	Units	OrigDataRate	OrigDataStartFrame	OrigNumFrames
250.000000	250.000000	6	24	m	250.000000	381	507
Frame#	Time	L.Toe.Tip			R.Toe.Tip			L.Ankle.Lat			R.Ankle.Lat			L.Ankle.Med			R.Ankle.Med			L.Heel			R.Heel			L.Knee.Lat			R.Knee.Lat			L.Knee.Med			R.Knee.Med			L.Thigh.Upper			R.Thigh.Upper			L.ASIS			R.ASIS			V.Sacral			L.Acromium			R.Acromium			C7			L.Elbow			R.Elbow			L.Wrist.Lat			R.Wrist.Lat
		X1	Y1	Z1	X2	Y2	Z2	X3	Y3	Z3	X4	Y4	Z4	X5	Y5	Z5	X6	Y6	Z6	X7	Y7	Z7	X8	Y8	Z8	X9	Y9	Z9	X10	Y10	Z10	X11	Y11	Z11	X12	Y12	Z12	X13	Y13	Z13	X14	Y14	Z14	X15	Y15	Z15	X16	Y16	Z16	X17	Y17	Z17	X18	Y18	Z18	X19	Y19	Z19	X20	Y20	Z20	X21	Y21	Z21	X22	Y22	Z22	X23	Y23	Z23	X24	Y24	Z24

381	1.52	1.2583922	0.071737049	-0.071637499	0.92806507	0.035603749	0.097429251	1.1431907	0.12475751	-0.08512594	0.79511175	0.07498057	0.11189407	1.1566119	0.13842205	-0.00086069418	0.82598845	0.098699788	0.028853432	1.0687384	0.10525186	-0.036224128	0.74399582	0.061969068	0.047116674	1.2571247	0.48748201	-0.088178497	0.9381483	0.44056929	0.15781186	1.2507859	0.47898825	0.032139702	0.91924008	0.44389389	0.027324091	1.0538256	0.82760542	-0.11706369	0.99644238	0.80529092	0.22586515	1.1124416	0.87329446	-0.059394104	1.0983017	0.86058379	0.18331367	0.92277426	0.93751276	0.056258173	1.0603118	1.3506469	-0.11764736	1.0651558	1.3369841	0.24255972	0.98265113	1.3775182	0.064802346	0.94601715	1.062446	-0.17675588	1.0523066	1.0159934	0.32661742	1.0090456	0.83732319	-0.24614942	1.296215	0.97503335	0.2716698
382	1.524	1.2773702	0.071750944	-0.071532235	0.92820976	0.035531482	0.097480435	1.1605256	0.12072237	-0.084505438	0.79543819	0.075542721	0.1118988	1.1740589	0.1346682	-0.00049785446	0.82626914	0.099183681	0.028867382	1.0866941	0.098865923	-0.035792046	0.74420208	0.062830891	0.047176378	1.263648	0.48669203	-0.087377006	0.94032587	0.44046358	0.15771563	1.2572328	0.47802687	0.032795393	0.92199821	0.44369877	0.027043735	1.0609543	0.82663016	-0.11729238	1.0012418	0.80439999	0.22547774	1.1192081	0.87212847	-0.059284191	1.1038804	0.85938247	0.18366908	0.92895142	0.93649177	0.055352914	1.0660369	1.3495764	-0.11777208	1.0710613	1.3359848	0.24253881	0.98853479	1.3765555	0.064760546	0.94985702	1.0623311	-0.17663271	1.0601554	1.0150598	0.32730696	1.0103878	0.83706148	-0.24750138	1.3037916	0.97691712	0.27049583
383	1.528	1.2962995	0.072005425	-0.071361334	0.92839133	0.035481614	0.0975592	1.1779128	0.11687644	-0.083862129	0.79577941	0.076115282	0.11193884	1.1918848	0.13122159	-0.00029996318	0.82671623	0.09955365	0.028926847	1.1048445	0.092739541	-0.035380947	0.74439998	0.06370039	0.047274173	1.2700379	0.48574711	-0.08663308	0.94263095	0.44029652	0.15763485	1.2635667	0.47690991	0.0334193	0.92482447	0.44337803	0.026793557	1.0678825	0.82558216	-0.11744411	1.0060533	0.80344154	0.22507556	1.125989	0.87085645	-0.059171836	1.1092348	0.85823537	0.18418279	0.93519405	0.93543118	0.054608877	1.0717805	1.3484373	-0.1179008	1.076994	1.3348984	0.24251425	0.99442405	1.3755253	0.064712097	0.95374812	1.0621353	-0.17650844	1.0678565	1.0139727	0.32783097	1.0118526	0.83675494	-0.24879081	1.3113255	0.97866881	0.26935862
384	1.532	1.315165	0.072510323	-0.071094202	0.92854757	0.035454202	0.097624641	1.195342	0.11323953	-0.083209739	0.79614188	0.076708264	0.11201575	1.2099138	0.12808627	-0.00020800002	0.82725581	0.099862071	0.029007827	1.1231687	0.086848566	-0.034845802	0.74460017	0.064580035	0.047394877	1.2763025	0.48464673	-0.085944095	0.9450559	0.44005973	0.15756461	1.2697966	0.47564561	0.03400728	0.92771469	0.44293151	0.02657801	1.0747313	0.82446378	-0.11757333	1.0109408	0.80243882	0.22472559	1.132786	0.86948249	-0.059068618	1.1145936	0.85696173	0.18481514	0.94145343	0.93433822	0.053948317	1.0775396	1.3472355	-0.11803694	1.0829504	1.3337274	0.24248457	1.0003063	1.3744397	0.064653165	0.95769293	1.0618595	-0.17638896	1.0754242	1.0127405	0.32820026	1.0134495	0.83640029	-0.25001995	1.3188202	0.98027713	0.26825561
385	1.536	1.3339478	0.073276476	-0.070700973	0.92866184	0.035437635	0.097662888	1.2128047	0.10982585	-0.082524942	0.79651861	0.077324298	0.11212134	1.2277185	0.12516324	-5.3567758e-06	0.82774086	0.1002098	0.029047745	1.1416156	0.08117964	-0.034133418	0.7448168	0.065472432	0.04752696	1.2824469	0.4833997	-0.085312672	0.94759114	0.4397531	0.15750855	1.2759211	0.47423873	0.034565094	0.9306654	0.44236427	0.02639829	1.0816158	0.82327404	-0.11772791	1.0159545	0.80141547	0.22447543	1.1395995	0.86801692	-0.05897521	1.1200825	0.85536271	0.18557626	0.94766927	0.9332153	0.053247047	1.0833087	1.34598	-0.11818448	1.0889306	1.3324737	0.24244869	1.0061642	1.3733267	0.064569288	0.96169944	1.0615153	-0.17628009	1.0829289	1.0114064	0.32849125	1.0151778	0.83599457	-0.25118994	1.3262781	0.98173654	0.26719476
386	1.54	1.352619	0.074318173	-0.070173195	0.9287494	0.035418084	0.097681393	1.2302889	0.10665165	-0.08178502	0.79688889	0.077953653	0.11223696	1.2448222	0.1223119	0.00052694687	0.82812174	0.10063281	0.029024066	1.1601391	0.075756439	-0.033284295	0.74506242	0.066378786	0.047659366	1.2884737	0.48201252	-0.084746669	0.95022605	0.43938407	0.1574699	1.2819315	0.47268868	0.035104194	0.93367713	0.44169166	0.026251536	1.0885686	0.8220118	-0.11791373	1.0210622	0.80036666	0.22429059	1.1464303	0.86647143	-0.058878391	1.1256841	0.85345988	0.18640863	0.95385566	0.93205813	0.052482641	1.0890855	1.3446766	-0.11834461	1.0949373	1.3311411	0.24240552	1.011977	1.3722143	0.064440256	0.96579055	1.0611222	-0.17616362	1.0904141	1.0100026	0.32875772	1.0170315	0.83553544	-0.25230042	1.3337001	0.98305351	0.2661806
